<?xml version="1.0" encoding="UTF-8" standalone="no"?><svg xmlns="http://www.w3.org/2000/svg" xmlns:xlink="http://www.w3.org/1999/xlink" contentStyleType="text/css" height="470px" preserveAspectRatio="none" style="width:735px;height:470px;background:#FFFFFF;" version="1.1" viewBox="0 0 735 470" width="735px" zoomAndPan="magnify"><defs/><g><line style="stroke:#181818;stroke-width:0.5;stroke-dasharray:5.0,5.0;" x1="29" x2="29" y1="56.0679" y2="417.4221"/><line style="stroke:#181818;stroke-width:0.5;stroke-dasharray:5.0,5.0;" x1="94" x2="94" y1="56.0679" y2="417.4221"/><line style="stroke:#181818;stroke-width:0.5;stroke-dasharray:5.0,5.0;" x1="159" x2="159" y1="56.0679" y2="417.4221"/><line style="stroke:#181818;stroke-width:0.5;stroke-dasharray:5.0,5.0;" x1="224" x2="224" y1="56.0679" y2="417.4221"/><line style="stroke:#181818;stroke-width:0.5;stroke-dasharray:5.0,5.0;" x1="328.5" x2="328.5" y1="56.0679" y2="417.4221"/><line style="stroke:#181818;stroke-width:0.5;stroke-dasharray:5.0,5.0;" x1="399.5" x2="399.5" y1="56.0679" y2="417.4221"/><line style="stroke:#181818;stroke-width:0.5;stroke-dasharray:5.0,5.0;" x1="535" x2="535" y1="56.0679" y2="417.4221"/><line style="stroke:#181818;stroke-width:0.5;stroke-dasharray:5.0,5.0;" x1="598" x2="598" y1="56.0679" y2="417.4221"/><line style="stroke:#181818;stroke-width:0.5;stroke-dasharray:5.0,5.0;" x1="687" x2="687" y1="56.0679" y2="417.4221"/><text fill="#000000" font-family="sans-serif" font-size="14" lengthAdjust="spacing" textLength="33" x="10" y="51.9659">ROM</text><path d="M9,9 L9,33 M9,21 L26,21 " fill="none" style="stroke:#181818;stroke-width:0.5;"/><ellipse cx="38" cy="21" fill="#E2E2F0" rx="12" ry="12" style="stroke:#181818;stroke-width:0.5;"/><text fill="#000000" font-family="sans-serif" font-size="14" lengthAdjust="spacing" textLength="33" x="10" y="431.388">ROM</text><path d="M9,439.49 L9,463.49 M9,451.49 L26,451.49 " fill="none" style="stroke:#181818;stroke-width:0.5;"/><ellipse cx="38" cy="451.49" fill="#E2E2F0" rx="12" ry="12" style="stroke:#181818;stroke-width:0.5;"/><text fill="#000000" font-family="sans-serif" font-size="14" lengthAdjust="spacing" textLength="55" x="64" y="51.9659">Memory</text><path d="M74,9 L74,33 M74,21 L91,21 " fill="none" style="stroke:#181818;stroke-width:0.5;"/><ellipse cx="103" cy="21" fill="#E2E2F0" rx="12" ry="12" style="stroke:#181818;stroke-width:0.5;"/><text fill="#000000" font-family="sans-serif" font-size="14" lengthAdjust="spacing" textLength="55" x="64" y="431.388">Memory</text><path d="M74,439.49 L74,463.49 M74,451.49 L91,451.49 " fill="none" style="stroke:#181818;stroke-width:0.5;"/><ellipse cx="103" cy="451.49" fill="#E2E2F0" rx="12" ry="12" style="stroke:#181818;stroke-width:0.5;"/><text fill="#000000" font-family="sans-serif" font-size="14" lengthAdjust="spacing" textLength="34" x="139.5" y="51.9659">reset</text><path d="M139,9 L139,33 M139,21 L156,21 " fill="none" style="stroke:#181818;stroke-width:0.5;"/><ellipse cx="168" cy="21" fill="#E2E2F0" rx="12" ry="12" style="stroke:#181818;stroke-width:0.5;"/><text fill="#000000" font-family="sans-serif" font-size="14" lengthAdjust="spacing" textLength="34" x="139.5" y="431.388">reset</text><path d="M139,439.49 L139,463.49 M139,451.49 L156,451.49 " fill="none" style="stroke:#181818;stroke-width:0.5;"/><ellipse cx="168" cy="451.49" fill="#E2E2F0" rx="12" ry="12" style="stroke:#181818;stroke-width:0.5;"/><rect fill="#E2E2F0" height="33.0679" rx="2.5" ry="2.5" style="stroke:#181818;stroke-width:0.5;" width="61" x="194" y="22"/><text fill="#000000" font-family="sans-serif" font-size="14" lengthAdjust="spacing" textLength="47" x="201" y="43.9659">MUX16</text><rect fill="#E2E2F0" height="33.0679" rx="2.5" ry="2.5" style="stroke:#181818;stroke-width:0.5;" width="61" x="194" y="416.4221"/><text fill="#000000" font-family="sans-serif" font-size="14" lengthAdjust="spacing" textLength="47" x="201" y="438.388">MUX16</text><rect fill="#E2E2F0" height="33.0679" rx="2.5" ry="2.5" style="stroke:#181818;stroke-width:0.5;" width="40" x="308.5" y="22"/><text fill="#000000" font-family="sans-serif" font-size="14" lengthAdjust="spacing" textLength="26" x="315.5" y="43.9659">ALU</text><rect fill="#E2E2F0" height="33.0679" rx="2.5" ry="2.5" style="stroke:#181818;stroke-width:0.5;" width="40" x="308.5" y="416.4221"/><text fill="#000000" font-family="sans-serif" font-size="14" lengthAdjust="spacing" textLength="26" x="315.5" y="438.388">ALU</text><rect fill="#E2E2F0" height="33.0679" rx="2.5" ry="2.5" style="stroke:#181818;stroke-width:0.5;" width="82" x="358.5" y="22"/><text fill="#000000" font-family="sans-serif" font-size="14" lengthAdjust="spacing" textLength="68" x="365.5" y="43.9659">A_register</text><rect fill="#E2E2F0" height="33.0679" rx="2.5" ry="2.5" style="stroke:#181818;stroke-width:0.5;" width="82" x="358.5" y="416.4221"/><text fill="#000000" font-family="sans-serif" font-size="14" lengthAdjust="spacing" textLength="68" x="365.5" y="438.388">A_register</text><rect fill="#E2E2F0" height="33.0679" rx="2.5" ry="2.5" style="stroke:#181818;stroke-width:0.5;" width="31" x="520" y="22"/><text fill="#000000" font-family="sans-serif" font-size="14" lengthAdjust="spacing" textLength="17" x="527" y="43.9659">PC</text><rect fill="#E2E2F0" height="33.0679" rx="2.5" ry="2.5" style="stroke:#181818;stroke-width:0.5;" width="31" x="520" y="416.4221"/><text fill="#000000" font-family="sans-serif" font-size="14" lengthAdjust="spacing" textLength="17" x="527" y="438.388">PC</text><rect fill="#E2E2F0" height="33.0679" rx="2.5" ry="2.5" style="stroke:#181818;stroke-width:0.5;" width="75" x="561" y="22"/><text fill="#000000" font-family="sans-serif" font-size="14" lengthAdjust="spacing" textLength="61" x="568" y="43.9659">MUX16_2</text><rect fill="#E2E2F0" height="33.0679" rx="2.5" ry="2.5" style="stroke:#181818;stroke-width:0.5;" width="75" x="561" y="416.4221"/><text fill="#000000" font-family="sans-serif" font-size="14" lengthAdjust="spacing" textLength="61" x="568" y="438.388">MUX16_2</text><rect fill="#E2E2F0" height="33.0679" rx="2.5" ry="2.5" style="stroke:#181818;stroke-width:0.5;" width="83" x="646" y="22"/><text fill="#000000" font-family="sans-serif" font-size="14" lengthAdjust="spacing" textLength="69" x="653" y="43.9659">D_register</text><rect fill="#E2E2F0" height="33.0679" rx="2.5" ry="2.5" style="stroke:#181818;stroke-width:0.5;" width="83" x="646" y="416.4221"/><text fill="#000000" font-family="sans-serif" font-size="14" lengthAdjust="spacing" textLength="69" x="653" y="438.388">D_register</text><polygon fill="#181818" points="212.5,85.7739,222.5,89.7739,212.5,93.7739,216.5,89.7739" style="stroke:#181818;stroke-width:1.0;"/><line style="stroke:#181818;stroke-width:1.0;" x1="29.5" x2="218.5" y1="89.7739" y2="89.7739"/><text fill="#000000" font-family="sans-serif" font-size="13" lengthAdjust="spacing" textLength="75" x="36.5" y="83.9649">"instruction"</text><polygon fill="#181818" points="235.5,117.4799,225.5,121.4799,235.5,125.4799,231.5,121.4799" style="stroke:#181818;stroke-width:1.0;"/><line style="stroke:#181818;stroke-width:1.0;" x1="229.5" x2="327.5" y1="121.4799" y2="121.4799"/><text fill="#000000" font-family="sans-serif" font-size="13" lengthAdjust="spacing" textLength="80" x="241.5" y="115.6709">"ALU output"</text><polygon fill="#181818" points="387.5,131.4799,397.5,135.4799,387.5,139.4799,391.5,135.4799" style="stroke:#181818;stroke-width:1.0;"/><line style="stroke:#181818;stroke-width:1.0;" x1="224.5" x2="393.5" y1="135.4799" y2="135.4799"/><polygon fill="#181818" points="523.5,163.186,533.5,167.186,523.5,171.186,527.5,167.186" style="stroke:#181818;stroke-width:1.0;"/><line style="stroke:#181818;stroke-width:1.0;" x1="399.5" x2="529.5" y1="167.186" y2="167.186"/><text fill="#000000" font-family="sans-serif" font-size="13" lengthAdjust="spacing" textLength="112" x="406.5" y="161.377">"A register output"</text><polygon fill="#181818" points="586.5,177.186,596.5,181.186,586.5,185.186,590.5,181.186" style="stroke:#181818;stroke-width:1.0;"/><line style="stroke:#181818;stroke-width:1.0;" x1="399.5" x2="592.5" y1="181.186" y2="181.186"/><polygon fill="#181818" points="586.5,208.892,596.5,212.892,586.5,216.892,590.5,212.892" style="stroke:#181818;stroke-width:1.0;"/><line style="stroke:#181818;stroke-width:1.0;" x1="94.5" x2="592.5" y1="212.892" y2="212.892"/><text fill="#000000" font-family="sans-serif" font-size="13" lengthAdjust="spacing" textLength="33" x="101.5" y="207.083">"inM"</text><polygon fill="#181818" points="339.5,222.892,329.5,226.892,339.5,230.892,335.5,226.892" style="stroke:#181818;stroke-width:1.0;"/><line style="stroke:#181818;stroke-width:1.0;" x1="333.5" x2="597.5" y1="226.892" y2="226.892"/><polygon fill="#181818" points="523.5,254.598,533.5,258.598,523.5,262.598,527.5,258.598" style="stroke:#181818;stroke-width:1.0;"/><line style="stroke:#181818;stroke-width:1.0;" x1="159.5" x2="529.5" y1="258.598" y2="258.598"/><text fill="#000000" font-family="sans-serif" font-size="13" lengthAdjust="spacing" textLength="59" x="166.5" y="252.789">"reset bit"</text><polygon fill="#181818" points="675.5,286.304,685.5,290.304,675.5,294.304,679.5,290.304" style="stroke:#181818;stroke-width:1.0;"/><line style="stroke:#181818;stroke-width:1.0;" x1="328.5" x2="681.5" y1="290.304" y2="290.304"/><text fill="#000000" font-family="sans-serif" font-size="13" lengthAdjust="spacing" textLength="80" x="335.5" y="284.495">"ALU output"</text><polygon fill="#181818" points="105.5,318.01,95.5,322.01,105.5,326.01,101.5,322.01" style="stroke:#181818;stroke-width:1.0;"/><line style="stroke:#181818;stroke-width:1.0;" x1="99.5" x2="327.5" y1="322.01" y2="322.01"/><text fill="#000000" font-family="sans-serif" font-size="13" lengthAdjust="spacing" textLength="80" x="111.5" y="316.201">"ALU output"</text><polygon fill="#181818" points="105.5,349.716,95.5,353.716,105.5,357.716,101.5,353.716" style="stroke:#181818;stroke-width:1.0;"/><line style="stroke:#181818;stroke-width:1.0;" x1="99.5" x2="398.5" y1="353.716" y2="353.716"/><text fill="#000000" font-family="sans-serif" font-size="13" lengthAdjust="spacing" textLength="69" x="111.5" y="347.907">"addressM"</text><polygon fill="#181818" points="40.5,381.4221,30.5,385.4221,40.5,389.4221,36.5,385.4221" style="stroke:#181818;stroke-width:1.0;"/><line style="stroke:#181818;stroke-width:1.0;" x1="34.5" x2="534.5" y1="385.4221" y2="385.4221"/><text fill="#000000" font-family="sans-serif" font-size="13" lengthAdjust="spacing" textLength="71" x="46.5" y="379.6131">"PC output"</text><polygon fill="#181818" points="339.5,395.4221,329.5,399.4221,339.5,403.4221,335.5,399.4221" style="stroke:#181818;stroke-width:1.0;"/><line style="stroke:#181818;stroke-width:1.0;" x1="333.5" x2="686.5" y1="399.4221" y2="399.4221"/><!--MD5=[11e1ca13ed4854341d080cb4f2f55e8f]
@startuml
boundary ROM as ROM
boundary Memory as Memory
boundary reset as reset
ROM -> MUX16: "instruction"
ALU -> MUX16: "ALU output"
MUX16 -> A_register
A_register -> PC: "A register output"
A_register -> MUX16_2
Memory -> MUX16_2: "inM"
MUX16_2 -> ALU
reset -> PC: "reset bit"
ALU -> D_register: "ALU output"
ALU -> Memory: "ALU output"
A_register -> Memory: "addressM"
PC -> ROM: "PC output"
D_register -> ALU


@enduml

PlantUML version 1.2022.4(Sat Apr 09 15:29:17 CEST 2022)
(GPL source distribution)
Java Runtime: OpenJDK Runtime Environment
JVM: OpenJDK 64-Bit Server VM
Default Encoding: UTF-8
Language: en
Country: US
--></g></svg>