<?xml version="1.0" encoding="UTF-8" standalone="no"?><svg xmlns="http://www.w3.org/2000/svg" xmlns:xlink="http://www.w3.org/1999/xlink" contentStyleType="text/css" height="351px" preserveAspectRatio="none" style="width:314px;height:351px;background:#FFFFFF;" version="1.1" viewBox="0 0 314 351" width="314px" zoomAndPan="magnify"><defs/><g><line style="stroke:#181818;stroke-width:0.5;stroke-dasharray:5.0,5.0;" x1="30" x2="30" y1="56.0679" y2="298.01"/><line style="stroke:#181818;stroke-width:0.5;stroke-dasharray:5.0,5.0;" x1="94" x2="94" y1="56.0679" y2="298.01"/><line style="stroke:#181818;stroke-width:0.5;stroke-dasharray:5.0,5.0;" x1="193.5" x2="193.5" y1="56.0679" y2="298.01"/><line style="stroke:#181818;stroke-width:0.5;stroke-dasharray:5.0,5.0;" x1="273.5" x2="273.5" y1="56.0679" y2="298.01"/><text fill="#000000" font-family="sans-serif" font-size="14" lengthAdjust="spacing" textLength="45" x="5" y="51.9659">button</text><path d="M10,9 L10,33 M10,21 L27,21 " fill="none" style="stroke:#181818;stroke-width:0.5;"/><ellipse cx="39" cy="21" fill="#E2E2F0" rx="12" ry="12" style="stroke:#181818;stroke-width:0.5;"/><text fill="#000000" font-family="sans-serif" font-size="14" lengthAdjust="spacing" textLength="45" x="5" y="311.976">button</text><path d="M10,320.0779 L10,344.0779 M10,332.0779 L27,332.0779 " fill="none" style="stroke:#181818;stroke-width:0.5;"/><ellipse cx="39" cy="332.0779" fill="#E2E2F0" rx="12" ry="12" style="stroke:#181818;stroke-width:0.5;"/><rect fill="#E2E2F0" height="33.0679" rx="2.5" ry="2.5" style="stroke:#181818;stroke-width:0.5;" width="41" x="74" y="22"/><text fill="#000000" font-family="sans-serif" font-size="14" lengthAdjust="spacing" textLength="27" x="81" y="43.9659">CPU</text><rect fill="#E2E2F0" height="33.0679" rx="2.5" ry="2.5" style="stroke:#181818;stroke-width:0.5;" width="41" x="74" y="297.01"/><text fill="#000000" font-family="sans-serif" font-size="14" lengthAdjust="spacing" textLength="27" x="81" y="318.976">CPU</text><rect fill="#E2E2F0" height="33.0679" rx="2.5" ry="2.5" style="stroke:#181818;stroke-width:0.5;" width="72" x="157.5" y="22"/><text fill="#000000" font-family="sans-serif" font-size="14" lengthAdjust="spacing" textLength="58" x="164.5" y="43.9659">ROM32K</text><rect fill="#E2E2F0" height="33.0679" rx="2.5" ry="2.5" style="stroke:#181818;stroke-width:0.5;" width="72" x="157.5" y="297.01"/><text fill="#000000" font-family="sans-serif" font-size="14" lengthAdjust="spacing" textLength="58" x="164.5" y="318.976">ROM32K</text><rect fill="#E2E2F0" height="33.0679" rx="2.5" ry="2.5" style="stroke:#181818;stroke-width:0.5;" width="69" x="239.5" y="22"/><text fill="#000000" font-family="sans-serif" font-size="14" lengthAdjust="spacing" textLength="55" x="246.5" y="43.9659">Memory</text><rect fill="#E2E2F0" height="33.0679" rx="2.5" ry="2.5" style="stroke:#181818;stroke-width:0.5;" width="69" x="239.5" y="297.01"/><text fill="#000000" font-family="sans-serif" font-size="14" lengthAdjust="spacing" textLength="55" x="246.5" y="318.976">Memory</text><polygon fill="#181818" points="82.5,85.7739,92.5,89.7739,82.5,93.7739,86.5,89.7739" style="stroke:#181818;stroke-width:1.0;"/><line style="stroke:#181818;stroke-width:1.0;" x1="30.5" x2="88.5" y1="89.7739" y2="89.7739"/><text fill="#000000" font-family="sans-serif" font-size="13" lengthAdjust="spacing" textLength="40" x="37.5" y="83.9649">"reset"</text><polygon fill="#181818" points="105.5,117.4799,95.5,121.4799,105.5,125.4799,101.5,121.4799" style="stroke:#181818;stroke-width:1.0;"/><line style="stroke:#181818;stroke-width:1.0;" x1="99.5" x2="192.5" y1="121.4799" y2="121.4799"/><text fill="#000000" font-family="sans-serif" font-size="13" lengthAdjust="spacing" textLength="75" x="111.5" y="115.6709">"instruction"</text><polygon fill="#181818" points="262,149.186,272,153.186,262,157.186,266,153.186" style="stroke:#181818;stroke-width:1.0;"/><line style="stroke:#181818;stroke-width:1.0;" x1="94.5" x2="268" y1="153.186" y2="153.186"/><text fill="#000000" font-family="sans-serif" font-size="13" lengthAdjust="spacing" textLength="52" x="101.5" y="147.377">"writeM"</text><polygon fill="#181818" points="262,180.892,272,184.892,262,188.892,266,184.892" style="stroke:#181818;stroke-width:1.0;"/><line style="stroke:#181818;stroke-width:1.0;" x1="94.5" x2="268" y1="184.892" y2="184.892"/><text fill="#000000" font-family="sans-serif" font-size="13" lengthAdjust="spacing" textLength="43" x="101.5" y="179.083">"outM"</text><polygon fill="#181818" points="262,212.598,272,216.598,262,220.598,266,216.598" style="stroke:#181818;stroke-width:1.0;"/><line style="stroke:#181818;stroke-width:1.0;" x1="94.5" x2="268" y1="216.598" y2="216.598"/><text fill="#000000" font-family="sans-serif" font-size="13" lengthAdjust="spacing" textLength="69" x="101.5" y="210.789">"addressM"</text><polygon fill="#181818" points="181.5,244.304,191.5,248.304,181.5,252.304,185.5,248.304" style="stroke:#181818;stroke-width:1.0;"/><line style="stroke:#181818;stroke-width:1.0;" x1="94.5" x2="187.5" y1="248.304" y2="248.304"/><text fill="#000000" font-family="sans-serif" font-size="13" lengthAdjust="spacing" textLength="26" x="101.5" y="242.495">"PC"</text><polygon fill="#181818" points="105.5,276.01,95.5,280.01,105.5,284.01,101.5,280.01" style="stroke:#181818;stroke-width:1.0;"/><line style="stroke:#181818;stroke-width:1.0;" x1="99.5" x2="273" y1="280.01" y2="280.01"/><text fill="#000000" font-family="sans-serif" font-size="13" lengthAdjust="spacing" textLength="33" x="111.5" y="274.201">"inM"</text><!--MD5=[c36a9908d7937a6545adae353f7b2bdf]
@startuml
boundary button as reset
reset -> CPU: "reset"
ROM32K -> CPU: "instruction"
CPU -> Memory: "writeM"
CPU -> Memory: "outM"
CPU -> Memory: "addressM"
CPU -> ROM32K: "PC"
Memory -> CPU: "inM"

@enduml

PlantUML version 1.2022.4(Sat Apr 09 15:29:17 CEST 2022)
(GPL source distribution)
Java Runtime: OpenJDK Runtime Environment
JVM: OpenJDK 64-Bit Server VM
Default Encoding: UTF-8
Language: en
Country: US
--></g></svg>